<svg class="svg-standalone-icon" width="100%" viewBox="64.99999999999997 172.43289565294458 106.9911229736739 125.13420869411084"><g data-paper-data="{&quot;isIcon&quot;:&quot;true&quot;,&quot;iconType&quot;:&quot;icon&quot;,&quot;rawIconId&quot;:&quot;6e8dd89d-247a-4e20-8ac3-8af48108a929&quot;,&quot;selectedEffects&quot;:{&quot;container&quot;:&quot;&quot;,&quot;transformation&quot;:&quot;&quot;,&quot;pattern&quot;:&quot;&quot;},&quot;combineTerms&quot;:&quot;undefined&quot;,&quot;isDetailed&quot;:false,&quot;fillRule&quot;:&quot;nonzero&quot;,&quot;bounds&quot;:{&quot;x&quot;:64.99999999999997,&quot;y&quot;:172.43289565294458,&quot;width&quot;:106.9911229736739,&quot;height&quot;:125.13420869411084},&quot;iconStyle&quot;:&quot;standalone&quot;,&quot;suitableAsStandaloneIcon&quot;:true}" fill-rule="nonzero"><path d="M72.58772,297.5671h36.45353l25.82125,-51.6425c0.67507,-1.18137 1.18137,-2.19397 1.68767,-3.54409c7.59449,6.75065 -0.16877,-3.20656 0.67507,-4.89422c-1.0126,-1.35013 -1.35013,-5.56929 3.20656,-2.0252c-10.46352,-12.15118 -4.38792,-9.61969 1.5189,-3.71286c19.0706,22.61469 7.93202,5.90682 2.0252,-3.54409c-10.80105,-15.86404 13.67007,11.98241 1.68767,-4.05039c8.43832,6.58189 13.83884,11.98241 2.5315,-2.70026c-5.40052,-7.08819 -7.25695,-12.15118 1.5189,-3.71286c-5.56929,-7.93202 2.19397,-1.18137 1.5189,-3.54409c4.72546,1.85643 -5.23175,-9.45092 1.68767,-3.37533c-2.70026,-3.71286 2.5315,-1.18137 1.68767,-3.20656c1.35013,0 5.56929,2.5315 1.68767,-3.20656c3.54409,1.5189 -3.0378,-6.91942 1.5189,-3.37533c-0.33753,-2.70026 3.71286,1.68767 1.5189,-2.86903c0.5063,-1.18137 1.0126,-2.0252 1.5189,-3.0378l11.13858,-22.10839h-32.40314l-2.5315,5.06299l-1.35013,3.71286c-0.5063,1.0126 4.55669,9.78845 -2.19397,4.21916c-2.36273,-0.16877 -7.42572,-4.05039 -2.19397,5.06299c6.41312,10.46352 -10.12598,-7.08819 -3.0378,5.06299c-5.06299,-6.07559 10.96981,16.87664 -0.67507,3.37533c8.10079,11.47611 5.90682,10.29475 -1.35013,3.0378c-10.63228,-11.47611 5.56929,9.95722 -0.5063,4.55669c11.98241,15.52651 -8.60709,-8.43832 -2.36273,1.85643c-8.94462,-7.25695 -2.70026,-0.67507 -0.67507,3.71286c-4.05039,-4.72546 -14.17637,-12.99501 -2.19397,2.86903c6.75065,11.30735 -1.0126,3.0378 -1.68767,3.0378c-10.12598,-9.78845 -2.70026,0.67507 -2.0252,2.86903c4.21916,6.91942 -0.5063,2.36273 -0.84383,4.05039l-15.35774,34.42833l-1.35013,3.20656c0.33753,2.19397 -1.68767,1.0126 -2.0252,1.35013c-0.84383,-1.35013 -1.5189,-2.86903 0.84383,-1.35013c-2.19397,-3.54409 -0.16877,-1.85643 0,-3.20656c0.33753,-10.46352 0.5063,-34.0908 0.84383,-54.00523c-0.16877,-1.0126 0,-2.0252 0,-3.37533c-1.68767,-3.71286 9.95722,8.94462 0.84383,-4.89422c-9.11339,-11.30735 -11.13858,-15.02021 -0.67507,-3.71286c9.11339,10.46352 4.38792,5.56929 -0.16877,-2.86903c-1.85643,-4.89422 -6.75065,-6.07559 -1.35013,-4.38792c8.26955,9.78845 -9.61969,-13.33254 0.67507,-1.5189c3.54409,2.0252 -8.77585,-11.47611 0.84383,-3.37533c3.71286,2.70026 15.52651,15.69527 0.5063,-3.0378c-5.23175,-6.91942 -4.38792,-6.91942 -0.33753,-3.54409c-1.0126,-2.5315 0,-2.19397 0,-2.19397c0,0 -3.0378,-1.0126 -4.89422,0c-3.20656,-1.0126 -3.71286,-0.5063 -5.40052,0h-22.27716l2.0252,44.72308c0,1.0126 1.5189,3.88163 0.5063,3.20656c1.0126,2.36273 5.56929,8.26955 -0.16877,3.54409c-2.0252,-0.5063 3.88163,7.93202 0.16877,3.71286c-0.84383,1.5189 -1.0126,0.67507 0.16877,3.54409c1.5189,2.0252 -0.16877,3.0378 0.16877,3.54409c7.76325,8.60709 -0.84383,0.67507 0,3.54409c-8.10079,-8.94462 -3.71286,-0.84383 0.33753,3.54409c0,1.85643 -3.37533,-0.5063 -1.0126,2.36273c12.99501,15.86404 5.56929,8.77585 0.84383,4.38792c2.19397,4.38792 7.93202,10.63228 -0.33753,2.70026c13.83884,16.20157 7.08819,9.45092 1.35013,4.55669c6.07559,8.26955 0.5063,3.54409 0.5063,3.88163c-5.40052,-5.23175 -0.84383,1.5189 -0.16877,2.86903c0.16877,1.18137 -4.89422,-3.37533 1.0126,4.55669c0.33753,1.18137 0,1.85643 -1.0126,1.85643c0.33753,1.0126 0.16877,2.0252 0.33753,2.86903z" data-paper-data="{&quot;isPathIcon&quot;:true}"></path></g></svg>